<svg xmlns="http://www.w3.org/2000/svg" viewBox="0 0 400 120" width="400" height="120">
  <!-- Background Circle -->
  <circle cx="60" cy="60" r="50" fill="#1E88E5" opacity="0.9"/>
  
  <!-- Earth Grid Lines -->
  <path d="M10,60 a50,50 0 1,0 100,0 a50,50 0 1,0 -100,0" fill="none" stroke="#FFFFFF" stroke-width="1" opacity="0.6"/>
  <path d="M60,10 a50,50 0 1,0 0,100 a50,50 0 1,0 0,-100" fill="none" stroke="#FFFFFF" stroke-width="1" opacity="0.6"/>
  <ellipse cx="60" cy="60" rx="50" ry="20" fill="none" stroke="#FFFFFF" stroke-width="1" opacity="0.6"/>
  <ellipse cx="60" cy="60" rx="50" ry="35" fill="none" stroke="#FFFFFF" stroke-width="1" opacity="0.6"/>
  
  <!-- Quantum Circuit Element -->
  <line x1="85" y1="60" x2="110" y2="60" stroke="#4CAF50" stroke-width="3"/>
  <circle cx="120" cy="60" r="10" fill="none" stroke="#4CAF50" stroke-width="3"/>
  <line x1="130" y1="60" x2="150" y2="60" stroke="#4CAF50" stroke-width="3"/>
  
  <!-- Data Visualization Element -->
  <polyline points="150,80 160,50 170,65 180,40 190,55 200,35" fill="none" stroke="#FF9800" stroke-width="3" stroke-linecap="round" stroke-linejoin="round"/>
  
  <!-- AI Neural Network Nodes -->
  <circle cx="220" cy="40" r="5" fill="#E91E63"/>
  <circle cx="220" cy="60" r="5" fill="#E91E63"/>
  <circle cx="220" cy="80" r="5" fill="#E91E63"/>
  
  <circle cx="240" cy="30" r="5" fill="#E91E63"/>
  <circle cx="240" cy="50" r="5" fill="#E91E63"/>
  <circle cx="240" cy="70" r="5" fill="#E91E63"/>
  <circle cx="240" cy="90" r="5" fill="#E91E63"/>
  
  <circle cx="260" cy="40" r="5" fill="#E91E63"/>
  <circle cx="260" cy="60" r="5" fill="#E91E63"/>
  <circle cx="260" cy="80" r="5" fill="#E91E63"/>
  
  <!-- Neural Network Connections -->
  <line x1="220" y1="40" x2="240" y2="30" stroke="#E91E63" stroke-width="1" opacity="0.6"/>
  <line x1="220" y1="40" x2="240" y2="50" stroke="#E91E63" stroke-width="1" opacity="0.6"/>
  <line x1="220" y1="40" x2="240" y2="70" stroke="#E91E63" stroke-width="1" opacity="0.6"/>
  <line x1="220" y1="40" x2="240" y2="90" stroke="#E91E63" stroke-width="1" opacity="0.6"/>
  
  <line x1="220" y1="60" x2="240" y2="30" stroke="#E91E63" stroke-width="1" opacity="0.6"/>
  <line x1="220" y1="60" x2="240" y2="50" stroke="#E91E63" stroke-width="1" opacity="0.6"/>
  <line x1="220" y1="60" x2="240" y2="70" stroke="#E91E63" stroke-width="1" opacity="0.6"/>
  <line x1="220" y1="60" x2="240" y2="90" stroke="#E91E63" stroke-width="1" opacity="0.6"/>
  
  <line x1="220" y1="80" x2="240" y2="30" stroke="#E91E63" stroke-width="1" opacity="0.6"/>
  <line x1="220" y1="80" x2="240" y2="50" stroke="#E91E63" stroke-width="1" opacity="0.6"/>
  <line x1="220" y1="80" x2="240" y2="70" stroke="#E91E63" stroke-width="1" opacity="0.6"/>
  <line x1="220" y1="80" x2="240" y2="90" stroke="#E91E63" stroke-width="1" opacity="0.6"/>
  
  <line x1="240" y1="30" x2="260" y2="40" stroke="#E91E63" stroke-width="1" opacity="0.6"/>
  <line x1="240" y1="30" x2="260" y2="60" stroke="#E91E63" stroke-width="1" opacity="0.6"/>
  <line x1="240" y1="30" x2="260" y2="80" stroke="#E91E63" stroke-width="1" opacity="0.6"/>
  
  <line x1="240" y1="50" x2="260" y2="40" stroke="#E91E63" stroke-width="1" opacity="0.6"/>
  <line x1="240" y1="50" x2="260" y2="60" stroke="#E91E63" stroke-width="1" opacity="0.6"/>
  <line x1="240" y1="50" x2="260" y2="80" stroke="#E91E63" stroke-width="1" opacity="0.6"/>
  
  <line x1="240" y1="70" x2="260" y2="40" stroke="#E91E63" stroke-width="1" opacity="0.6"/>
  <line x1="240" y1="70" x2="260" y2="60" stroke="#E91E63" stroke-width="1" opacity="0.6"/>
  <line x1="240" y1="70" x2="260" y2="80" stroke="#E91E63" stroke-width="1" opacity="0.6"/>
  
  <line x1="240" y1="90" x2="260" y2="40" stroke="#E91E63" stroke-width="1" opacity="0.6"/>
  <line x1="240" y1="90" x2="260" y2="60" stroke="#E91E63" stroke-width="1" opacity="0.6"/>
  <line x1="240" y1="90" x2="260" y2="80" stroke="#E91E63" stroke-width="1" opacity="0.6"/>
  
  <!-- Infinity Symbol -->
  <path d="M290,60 c10,-15 25,-15 35,0 c10,15 25,15 35,0 c10,-15 25,-15 35,0 c10,15 25,15 35,0" fill="none" stroke="#9C27B0" stroke-width="5" stroke-linecap="round"/>
  
  <!-- Text Elements -->
  <text x="60" y="105" font-family="Arial, sans-serif" font-weight="bold" font-size="16" fill="#FFFFFF" text-anchor="middle">GAIA</text>
  <text x="330" y="105" font-family="Arial, sans-serif" font-weight="bold" font-size="16" fill="#9C27B0" text-anchor="middle">∞</text>
</svg>
